# File created by Blade
# Date/Time:  Thu Sep 25 19:32:06 2014
# Frame Rate: 120.000 fps
#------------------------------------------------------
:FULLY-SPECIFIED
:DEGREES
1048
root -9.591545 32.200513 -8.257370 16.681270 15.891844 10.224313
Spine 4.519899 4.556930 -34.186950
Head 39.378741 23.696841 17.233376
LeftShoulder -9.198974 23.799135 6.996730
LeftArm 24.238255 27.554816 -53.990971
LeftForeArm 13.908685 0.000000 19.619840
LeftHand -28.751550 -0.000000 3.020462
LeftHandThumb1 -26.253704 0.000000 33.147579
RightShoulder -17.100915 21.106125 -42.518423
RightArm 7.593157 29.004686 26.462525
RightForeArm 16.959938 -0.000000 58.253726
RightHand 4.473817 -0.000000 3.241055
RightHandThumb1 -24.326973 -0.000000 -32.862282
LeftUpLeg -0.152150 -4.503421 -13.445706
LeftLeg -3.825340 -0.000000 0.000000
LeftFoot -7.642952 -8.394127 -16.839153
LeftToeBase 9.539931 -0.000000 -0.000000
RightUpLeg -32.212628 -11.704540 13.161445
RightLeg 9.894493 -0.000000 -0.000000
RightFoot -3.290160 -0.378830 12.355389
RightToeBase -10.460662 -0.000000 0.000000
1049
root -9.512363 32.181206 -8.153322 16.734553 16.076419 10.384958
Spine 4.547112 4.525110 -34.126496
Head 39.380482 23.560174 17.140562
LeftShoulder -9.245923 23.855702 6.934270
LeftArm 24.311023 27.605687 -53.948298
LeftForeArm 13.885396 -0.000000 19.609534
LeftHand -28.747307 -0.000000 2.906114
LeftHandThumb1 -26.253704 0.000000 33.147579
RightShoulder -17.110748 21.102496 -42.507429
RightArm 7.444894 28.933239 26.500552
RightForeArm 16.819588 -0.000000 58.724670
RightHand 4.426490 -0.000000 3.373688
RightHandThumb1 -24.326973 -0.000000 -32.862282
LeftUpLeg 0.084225 -4.592726 -13.611523
LeftLeg -3.791719 -0.000000 0.000000
LeftFoot -7.628877 -8.671343 -17.039109
LeftToeBase 9.462453 -0.000000 -0.000000
RightUpLeg -31.942648 -11.950768 12.940730
RightLeg 9.890615 -0.000000 -0.000000
RightFoot -2.923007 -0.536819 11.968943
RightToeBase -10.670987 -0.000000 0.000000
1050
root -9.425829 32.160708 -8.047585 16.801230 16.264327 10.584042
Spine 4.560018 4.474533 -34.122593
Head 39.359813 23.419230 17.085610
LeftShoulder -9.291853 23.881457 6.922381
LeftArm 24.287077 27.653894 -54.007900
LeftForeArm 13.907536 -0.000000 19.656302
LeftHand -28.763049 -0.000000 2.976205
LeftHandThumb1 -26.253704 0.000000 33.147579
RightShoulder -17.044002 20.629139 -42.174607
RightArm 7.629426 29.228512 26.470123
RightForeArm 16.824288 0.000000 59.124125
RightHand 4.473061 -0.000000 3.347124
RightHandThumb1 -24.326973 -0.000000 -32.862282
LeftUpLeg 0.326214 -4.686631 -13.824867
LeftLeg -3.779463 -0.000000 0.000000
LeftFoot -7.570251 -8.943201 -16.994947
LeftToeBase 9.848450 -0.000000 -0.000000
RightUpLeg -31.689061 -12.190487 12.661973
RightLeg 10.011365 -0.000000 -0.000000
RightFoot -2.948512 -0.682989 11.180436
RightToeBase -9.472711 -0.000000 0.000000
1051
root -9.344451 32.141069 -7.942166 16.904935 16.448144 10.724531
Spine 4.500441 4.439614 -34.047851
Head 39.305959 23.224640 16.912141
LeftShoulder -9.295210 23.871947 6.915426
LeftArm 24.237868 27.744430 -54.062722
LeftForeArm 13.903828 -0.000000 19.652631
LeftHand -28.699290 -0.000000 2.923390
LeftHandThumb1 -26.253704 0.000000 33.147579
RightShoulder -17.038399 20.490846 -42.074846
RightArm 7.583192 29.259497 26.508801
RightForeArm 16.709583 -0.000000 59.546517
RightHand 4.445862 -0.000000 3.518089
RightHandThumb1 -24.326973 -0.000000 -32.862282
LeftUpLeg 0.505967 -4.729611 -13.982150
LeftLeg -3.719924 -0.000000 0.000000
LeftFoot -7.597613 -9.196669 -17.147142
LeftToeBase 9.846975 -0.000000 -0.000000
RightUpLeg -31.461861 -12.288233 12.398142
RightLeg 10.100225 -0.000000 -0.000000
RightFoot -3.825323 -0.945687 8.671844
RightToeBase -5.546041 -0.000000 0.000000
1052
root -9.267215 32.124242 -7.838398 17.041459 16.636479 10.829956
Spine 4.412775 4.448990 -33.941769
Head 39.294533 22.985231 16.814895
LeftShoulder -9.264009 23.896806 6.903062
LeftArm 24.236251 27.796203 -54.093629
LeftForeArm 13.926135 -0.000000 19.690385
LeftHand -28.706549 -0.000000 2.895777
LeftHandThumb1 -26.253704 0.000000 33.147579
RightShoulder -17.083730 20.546724 -42.070952
RightArm 7.299465 29.063841 26.449560
RightForeArm 16.596490 0.000000 60.065714
RightHand 4.415371 -0.000000 3.436830
RightHandThumb1 -24.326973 -0.000000 -32.862282
LeftUpLeg 0.623134 -4.792577 -14.082867
LeftLeg -3.646295 -0.000000 0.000000
LeftFoot -7.608306 -9.501472 -17.348940
LeftToeBase 9.969875 -0.000000 -0.000000
RightUpLeg -31.289632 -12.390668 12.221746
RightLeg 9.973102 -0.000000 -0.000000
RightFoot -4.164207 -0.281267 7.472114
RightToeBase -5.370971 -0.000000 0.000000
